{"title":"Jessabelle (2014) 720p WEB-DL H264 AAC Raven","uid":11397409,"size":808543815,"categoryP":"video","categoryS":"hd___movies","magnet":"?xt=urn:btih:4f64ed86987e992136d21086defb1846a7402f92&amp;dn=Jessabelle+%282014%29+720p+WEB-DL+H264+AAC+Raven&amp;tr=udp%3A%2F%2Ftracker.openbittorrent.com%3A80&amp;tr=udp%3A%2F%2Fopen.demonii.com%3A1337&amp;tr=udp%3A%2F%2Ftracker.coppersurfer.tk%3A6969&amp;tr=udp%3A%2F%2Fexodus.desync.com%3A6969","seeders":1,"leechers":0,"uploader":"Raven1969","files":-1,"time":1415381325,"description":" _____________________________________________________________\n|$***********************************************************$|\n|* &quot;?$$$$$$N    &quot;$$$$$$&quot; &quot;$$$$&quot;  &quot;$$$&quot;$$$$$$$$$$&quot;&quot;$$$  &quot;$$$&quot; *|\n|* &quot;$$$&quot;&quot;&quot;$$k. &quot;$$$&quot;&quot;$$$&quot; &quot;$$$   .$$&quot;&quot;$$$&quot;&quot;&quot;&quot;$$$&quot;&quot;$$$_ '$$$&quot; *|\n|* &quot;$$$  &quot;$$F'&quot;$$&quot;    *$$&quot;&quot;$$$   .$$&quot;&quot;$$$&quot;       &quot;$$$$ '$$$&quot; *|\n|* &quot;$$$__&quot;$$&quot; &quot;$$&quot;____*$$&quot;&quot;$$$   .$$&quot;&quot;$$$$__*$$$&quot;&quot;$$$$$_$$$&quot; *|\n|* &quot;$$$**#$'  &quot;$$$$$$$$$$&quot;&quot;$$$   _$$&quot;&quot;$$$$$$$$$$&quot;&quot;$$$$$$$$$&quot; *| \n|* &quot;$$$&quot;&quot;&quot;$$. &quot;$$$&quot;&quot;&quot;&quot;$$$&quot;&quot;$$$_ .$$$&quot;&quot;$$$        &quot;$$$ '$$$$&quot; *|\n|* &quot;$$$   &quot;$$.&quot;$$&quot;    &quot;$$&quot;&quot;$$$$_.$$$&quot;&quot;$$$&quot;___*$$&quot;&quot;$$$  '$$$&quot; *|\n|* &quot;$$$    $$$&quot;$$$    $$$&quot;  &quot;$$$$$&quot;  &quot;$$$$$$$$$$&quot;&quot;$$$   $$$&quot; *|\n|* &quot;&quot;&quot;&quot;    &quot;&quot;&quot;&quot;&quot;&quot;&quot;    &quot;&quot;&quot;&quot;    &quot;&quot;&quot;    &quot;&quot;&quot;&quot;&quot;&quot;&quot;&quot;&quot;&quot;&quot;  &quot;&quot;&quot;   &quot;&quot;&quot;&quot; *|\n|$*************************(PRESENTS)************************$|\n\n\n        Jessabelle(2014)720p.WEB-DL.H264.AAC.Raven.mp4\n\nEnglish subs included.\n\nEncoding Method: 2 Pass x264\n\n\n\nIMDB Rating:  6.1\n\nScreen image:\n &lt;a href=&quot;\nhttp://i.imgur.com/KST3Ynp.jpg&quot; rel=&quot;nofollow&quot; target=&quot;_NEW&quot;&gt;\nhttp://i.imgur.com/KST3Ynp.jpg&lt;/a&gt;\n\n\nReturning to her childhood home in Louisiana to recuperate from a horrific car accident, Jessabelle comes face to face with a long-tormented spirit that has been seeking her return -- and has no intention of letting her escape.\n\n\n\n\n\nGeneral\nFormat                                   : MPEG-4\nFormat profile                           : Base Media\nCodec ID                                 : isom\nFile size                                : 771 MiB\nDuration                                 : 1h 30mn\nOverall bit rate mode                    : Variable\nOverall bit rate                         : 1 195 Kbps\nEncoded date                             : UTC 2014-11-07 16:16:36\nTagged date                              : UTC 2014-11-07 16:16:36\n\nVideo\nID                                       : 1\nFormat                                   : AVC\nFormat/Info                              : Advanced Video Codec\nFormat profile                           : &lt;a class=&quot;__cf_email__&quot; href=&quot;/cdn-cgi/l/email-protection&quot; data-cfemail=&quot;0b43626c634b473f253b&quot;&gt;[email&amp;#160;protected]&lt;/a&gt;&lt;script cf-hash='f9e31' type=&quot;text/javascript&quot;&gt;\n/* &lt;![CDATA[ */!function(){try{var t=&quot;currentScript&quot;in document?document.currentScript:function(){for(var t=document.getElementsByTagName(&quot;script&quot;),e=t.length;e--;)if(t[e].getAttribute(&quot;cf-hash&quot;))return t[e]}();if(t&amp;&amp;t.previousSibling){var e,r,n,i,c=t.previousSibling,a=c.getAttribute(&quot;data-cfemail&quot;);if(a){for(e=&quot;&quot;,r=parseInt(a.substr(0,2),16),n=2;a.length-n;n+=2)i=parseInt(a.substr(n,2),16)^r,e+=String.fromCharCode(i);e=document.createTextNode(e),c.parentNode.replaceChild(e,c)}}}catch(u){}}();/* ]]&gt; */&lt;/script&gt;\nFormat settings, CABAC                   : Yes\nFormat settings, ReFrames                : 8 frames\nCodec ID                                 : avc1\nCodec ID/Info                            : Advanced Video Coding\nDuration                                 : 1h 30mn\nBit rate                                 : 1 100 Kbps\nMaximum bit rate                         : 11.0 Mbps\nWidth                                    : 1 280 pixels\nHeight                                   : 718 pixels\nDisplay aspect ratio                     : 16:9\nOriginal display aspect ratio            : 16:9\nFrame rate mode                          : Constant\nFrame rate                               : 23.976 fps\nColor space                              : YUV\nChroma subsampling                       : 4:2:0\nBit depth                                : 8 bits\nScan type                                : Progressive\nBits/(Pixel*Frame)                       : 0.050\nStream size                              : 709 MiB (92%)\nWriting library                          : x264 core 142 \nEncoded date                             : UTC 2014-11-07 16:16:36\nTagged date                              : UTC 2014-11-07 16:18:07\n\nAudio\nID                                       : 2\nFormat                                   : AAC\nFormat/Info                              : Advanced Audio Codec\nFormat profile                           : LC\nCodec ID                                 : 40\nDuration                                 : 1h 30mn\nBit rate mode                            : Variable\nBit rate                                 : 92.0 Kbps\nMaximum bit rate                         : 153 Kbps\nChannel(s)                               : 2 channels\nChannel positions                        : Front: L R\nSampling rate                            : 48.0 KHz\nCompression mode                         : Lossy\nStream size                              : 59.3 MiB (8%)\nEncoded date                             : UTC 2014-11-07 15:25:25\nTagged date                              : UTC 2014-11-07 16:18:07\n\nPLEASE  SEED FOR AS LONG AS POSSIBLE TO KEEP THE TORRENT ALIVE :-)","torrent":{"xt":"urn:btih:4f64ed86987e992136d21086defb1846a7402f92","amp;dn":"Jessabelle+%282014%29+720p+WEB-DL+H264+AAC+Raven","amp;tr":["udp%3A%2F%2Ftracker.openbittorrent.com%3A80","udp%3A%2F%2Fopen.demonii.com%3A1337","udp%3A%2F%2Ftracker.coppersurfer.tk%3A6969","udp%3A%2F%2Fexodus.desync.com%3A6969"],"infoHash":"4f64ed86987e992136d21086defb1846a7402f92","infoHashBuffer":{"type":"Buffer","data":[79,100,237,134,152,126,153,33,54,210,16,134,222,251,24,70,167,64,47,146]},"announce":[],"urlList":[]}}